<svg width="60" height="60" viewBox="0 0 496 499" fill="none" xmlns="http://www.w3.org/2000/svg">
    <path fill-rule="evenodd" clip-rule="evenodd"
        d="M96.5 55L92.7938 54C103.346 45.6327 114.59 38.0995 126.425 31.5L164.5 20.5L160 27.5C160.585 28.8289 161.126 28.9568 162.5 28V25C168.746 21.7161 171.41 22.011 175 25.5L169.5 28C172.88 29.3438 175.544 29.1672 181 28C185.546 26.682 187.015 25.6323 189.274 24.0171C189.506 23.851 189.747 23.6789 190 23.5C189.007 23.1536 187.563 23.3799 186.225 23.5894C184.81 23.8112 183.514 24.0141 183 23.5C183.249 22.167 182.644 21.4191 181.966 20.5825C181.271 19.7241 180.5 18.7725 180.5 17C181.092 15.8579 182.63 14.9345 184.16 14.0155C185.485 13.22 186.804 12.4279 187.5 11.5C187.93 10.3947 187.936 9.79823 187.945 8.84636C187.949 8.41359 187.954 7.90736 188 7.24646C189.349 7.53684 190.709 7.68155 192.011 7.81998C194.087 8.04077 196.012 8.24558 197.5 9C197.185 12.3252 194.188 13.2481 189.225 14.7765C188.988 14.8495 188.746 14.9239 188.5 15C187.275 15.4898 186.874 15.8263 186.5 16.5C190.111 16.8417 191.984 16.1351 194.292 15.2639C196.713 14.3503 199.613 13.2559 205.5 13L223.5 12L227.5 8L231 11.5H237C237.671 9.41335 237.124 8.41261 235.5 6.74646C235.5 6.74646 239.565 6.59151 241.5 8C243.341 9.33987 244.5 13 244.5 13L260.5 11C261.221 10.0728 260.237 9.51691 257.5 8.5C263.634 8.46184 265.886 7.62134 269 5.5C269.216 6.2584 269.432 6.5376 270 6.74646C272.408 5.15681 275.677 5.31161 279.309 5.48364C281.291 5.57751 283.382 5.67652 285.5 5.5C290.141 7.53427 294.5 9 298 9.5C301.5 10 308 9 308 9C308.412 11.0035 309.923 12.5644 311.773 14.4753C313.425 16.1824 315.349 18.1689 317 21C319.783 16.9073 321.676 15.0558 327.5 15C329.971 17.2811 333.304 19.6182 336.626 21.9475C342.042 25.745 347.428 29.5217 349 33C350.114 35.002 349.114 36.2495 347 38.5L358 43.5C363.8 44.5576 366.821 44.5894 370.5 40.5C372.19 38.1585 371.792 36.6857 370.5 32.0185C370.775 32.2767 371.038 32.52 371.289 32.7519C373.65 34.9356 374.912 36.1024 374.5 39C372.513 42.9892 370.624 44.6745 367 47.5C401.696 67.8265 416.775 81.6318 438 110L445.5 118.5C444.549 118.738 444.363 119.088 444.5 120C458.719 141.491 463.684 154.542 470.5 178.5L476 182.5C477.813 190.544 477.259 193.07 476.509 196.495C476.341 197.261 476.163 198.072 476 199L477 215C477.672 216.201 478.814 215.842 481 215C480.466 220.642 480.927 223.019 482 227C482 227 487.169 237.5 486 238.5C484.831 239.5 482.883 240.142 481 238.5L482 231.5C481.454 230.881 480.438 231.217 479.388 231.565C478.737 231.78 478.074 232 477.5 232V238.5C480.808 247.869 481.647 252.783 483 261.5C480.574 261.101 479.551 263.897 477.957 268.257C477.81 268.658 477.658 269.073 477.5 269.5C476.284 269.986 475.502 269.935 474 269.5C476.798 273.748 477.834 276.16 479 280.5C476.766 281.317 475.446 280.541 473 277.5C471.172 280.525 470.756 282.826 470.028 286.848L470 287C472.71 292.752 472.641 296.755 472.526 303.45L472.525 303.469C472.517 303.964 472.508 304.474 472.5 305C469.544 305.035 468.038 304.234 465.5 302C462.879 306.926 463.082 310.025 463.385 314.66C463.424 315.246 463.464 315.857 463.5 316.5C461.037 315.782 460.046 316.207 459 318.5C444.529 348.117 432.245 362.443 416.165 381.196L416.163 381.199C414.014 383.705 411.798 386.289 409.5 389L394.5 407.5C392.116 413.598 389.739 416.796 385.5 422.5C384.188 421.234 383.423 420.92 382 421L375 428C383.721 428.964 390.132 426.907 402 422.5C398.093 426.756 396.783 429.174 396 433.5H393.5C392.046 438.556 390.321 440.097 387 442.5C380.974 447.042 377.557 448.822 372.385 451.516L372.378 451.52C371.778 451.832 371.154 452.157 370.5 452.5C367.904 454.767 366.657 456.106 366 459C363.328 457.129 361.084 457.258 358.581 457.402C356.402 457.527 354.026 457.664 351 456.5C350.311 458.379 350.569 459.628 351.5 462L348.5 467.5C356.329 469.04 359.911 469.381 364 468.5C362.171 471.409 360.351 473.172 357.5 474.807L357 470L345.5 473L346 468L321.5 471.5L320 473.5C311.679 474.493 307.98 474.375 309.5 468.5C312.948 472.575 315.101 473.465 319.5 471.5C316.657 469.52 316.215 468.104 317.5 465L309.5 468.5C296 471.5 297 486 304.5 486C298.923 487.638 296.162 487.469 296 473C280.232 476.967 271.654 478.686 257 480.5C255.704 481.462 230.099 481.763 215 481L214 484.5L212.5 485L215 490.5C188.197 488.977 166.016 476.471 140 461C141.328 461.192 141.941 461.155 142.5 460.5C123.548 449.976 113.467 443.256 97 429C94.0499 427.742 92.8871 426.929 93 425L78.5 412.5C79.7189 412.729 80.0657 412.632 80 412C78.4618 409.265 75.0539 406.706 71.3742 403.942C64.2892 398.621 56.1964 392.543 58.5 383L51.5 371.5C48.7272 366.165 47.5 368 50.5 373.5C45.9081 371.585 44.6453 369.576 44.5 364.5C44.2729 363.002 43.3207 361.975 42.3946 360.976C41.5555 360.071 40.7377 359.188 40.5 358C43.0584 359.871 43.8241 359.358 45 358L44.715 357.418C44.5503 357.082 44.3911 356.756 44.2371 356.441L44.1155 356.191L44.0412 356.038C42.5433 352.955 41.5396 350.708 40.5 347C39.4793 349.098 38.7248 350.094 37 351.5C34.4963 341.752 33.9234 336.277 34 326.5C32.9319 322.441 32.5027 318.656 32.1664 315.691C31.7156 311.716 31.4319 309.214 30 309.5C29.0134 310.98 29.3652 313.19 29.7949 315.89C30.2364 318.663 30.7601 321.953 30 325.5L29.9971 325.488C28.3686 318.753 27.4547 314.973 24 313.5C22.1245 299.356 19.7281 289.691 17.1027 279.103C15.9384 274.408 14.729 269.53 13.5 264C13.1379 263.983 12.7232 264.34 12.3274 264.681C11.7902 265.143 11.2879 265.576 11 265C10.2418 260.261 10.0225 257.624 10.5 253C12.1325 253.816 13.2393 254.681 14.1582 255.399C15.4908 256.441 16.4281 257.173 18 257C17.3417 251.827 17.2163 248.955 18.5 244C18.3452 240.495 17.9203 239.052 16.5 237.5C15.1486 236.531 14.6738 237.013 14 238.5L13 232C15.9487 235.302 17.3134 237.166 19.5 240.5C21.6358 238.614 17.8292 226.617 14.6012 216.444C12.9784 211.33 11.5018 206.676 11 204C10.1334 199.378 12 192 12 192C15.1707 192.312 16.3023 194.933 16.5 206.5C16.8085 209.276 16.9742 211.672 17.1146 213.702C17.4294 218.252 17.617 220.963 19 222C19.25 221.75 19.25 221.25 19.25 220.75C19.25 220.25 19.25 219.75 19.5 219.5C19.7467 219.253 20.1279 219.294 20.7339 219.357C21.6039 219.449 22.937 219.589 25 219C23 224 22.5 229 25 229C28 229.5 30.5 213.5 27.5 209C24.1442 208.368 23.58 210.991 22.7404 214.895C22.6634 215.253 22.584 215.622 22.5 216C21 209.5 21.791 203.427 23.5 192.5C27.6888 176.115 28 168.5 23.5 165.5C20.737 168.868 19.7509 170.89 18 174.5C18 170.035 22.0679 164.961 25.7931 160.313C27.9085 157.674 29.9134 155.173 31 153C33.2077 158.639 34.9565 161.264 38.5 165.5C38.2251 154.396 38.9334 148.157 42 137L46.5 117.5C42.0463 115.974 39.946 119.056 37 132.5C36.6568 131.47 36.1817 130.681 35.7511 129.965C34.9271 128.595 34.2655 127.495 35 125.5C37.1225 120.724 40.6529 117.92 44.9934 114.471C48.8329 111.421 53.3063 107.867 58 102C58.2626 100.553 57.9289 100.049 56 100C52.8394 101.786 51.4159 103.242 49 106C50.7999 100.89 53.1667 97.7233 60 91.5C61.2737 89.1669 59.8177 89.0142 56.7363 89C60.803 84.1738 65.0491 79.5037 69.4642 75L89.5 61.5L85 65.5C85.9561 67.7856 88.3027 67.0169 93.5 64.5C94.9423 63.5761 96.5 64.5 97 66C98.3942 61.1327 99.2011 58.457 101.5 55.5C104.732 57.4394 102.95 62.513 101.015 68.0194C99.957 71.0308 98.8535 74.1716 98.5 77C108.25 71.1037 113.822 68.8058 124 67C127.175 65.0647 128.419 63.869 129.5 61.5C129.5 61.0142 128.923 60.2662 128.262 59.4089C126.882 57.6189 125.133 55.3523 127.5 54C131.407 55.3513 134.475 54.54 140 53L158.5 42C161.082 37.6288 161.554 35.832 159 32C154.679 33.8904 151.817 35.7809 149.074 37.5926C146.738 39.135 144.489 40.6204 141.5 42C140.962 42.8068 141.871 43.1796 142.67 43.5075C143.356 43.7893 143.962 44.0379 143.5 44.5L140 46.5C137.9 43.7951 135.06 46.4844 131.895 49.4816C130.797 50.5215 129.659 51.5984 128.5 52.5C128.394 50.6762 131.432 47.2985 133.904 44.5487C135.582 42.683 137 41.1063 137 40.5C136.315 38.6998 135.102 38.1013 132 37.5C129.458 39.4662 128.034 40.3304 125.5 40.5C127.105 42.4581 126.852 43.2714 125.5 44.5C126.34 47.0662 126.172 48.0386 125.5 49.5C124.644 51.8505 121.941 54.3451 118.699 57.3376C115.751 60.0582 112.357 63.1904 109.5 67C110.536 59.5443 111.98 55.3804 117 48C104.469 51.0848 99.3178 53.425 97.5 60C95.5989 58.6535 94.9387 57.8041 95 56L96.5 55ZM343.5 37C343.09 35.1207 342.479 34.0304 340.5 32C338.024 31.6809 337.546 32.565 337 34.5C338.53 36.021 340.073 36.3227 342.25 36.7482C342.644 36.8254 343.06 36.9067 343.5 37ZM238.5 11C239.431 11.2119 239.983 11.1925 241 11C240.493 9.99057 240.099 9.59538 239 9.5C238.473 9.61512 238.482 10.0753 238.496 10.7912C238.498 10.8585 238.499 10.9282 238.5 11ZM472 183.5C474.154 186.375 475.075 188.013 476 191C476.426 194.705 475.789 195.097 474.5 195.5C472.867 190.999 472.522 188.315 472 183.5ZM320 464L327 460.5C327.935 462.872 327.717 463.67 326.5 464.5C324.117 465.318 322.708 464.867 320.407 464.13L320.375 464.12C320.253 464.081 320.128 464.041 320 464ZM214 481C213.487 480.051 204.73 478.796 200.5 479C202.336 480.622 204.081 481.422 209.5 482.5C212.464 482.275 213.207 481.875 214 481ZM84 67L74.5 76.5C75.032 77.0858 74.9457 77.4142 74.5 78L71.5 81C71.9975 81.781 71.8821 82.219 71.5 83C67.9479 84.7615 67.1704 85.746 66.5 87.5C67.724 88.8435 68.7899 89.3354 71 90C73.4761 84.9199 75.862 80.9591 78.2787 76.9471C80.1486 73.8428 82.037 70.7079 84 67ZM39.5 201C35.7439 201.688 32 192.5 36.5 186C37.9914 185.378 38.2124 186.457 38.4848 187.786C38.7417 189.039 39.0442 190.515 40.5 191C40.7501 191.106 41.4617 190.454 42.218 189.762C43.2407 188.826 44.345 187.815 44.5 188.5C44.7697 189.692 42.3566 195.519 39.5 201ZM46.5 181C46.2648 182.528 46.6444 182.798 48 182.5C55.5595 166.297 60.3755 159.529 67.9144 148.935C68.5867 147.99 69.2806 147.015 70 146C72.0244 142.252 72.6155 140.051 73 136C72.7393 138.205 68 141.5 67 145C65.5 149 61.5978 149.917 58.5 150C58.8503 146.651 58.8035 145.232 57.5 145C58.5 148.5 52.5 152 52.5 150C51.4033 150.986 50.953 151.025 50.5 150C49.9227 151.873 49.144 152.685 47.5 154C46 155.5 46.1952 156.92 46 159C47 157.5 48 157.5 48 159C45.3168 160.55 45.7976 165.139 46.3368 170.284C46.7121 173.866 47.1156 177.717 46.5 181ZM67 141C64.1157 144.309 62.2797 145.818 59 148.5C61.0486 144.068 62.1755 141.581 63 137C66.4844 136.755 67.4338 137.562 67 141ZM65.5 124.5C65.3104 127.318 64.942 128.843 64 131.5C64.1468 131.42 64.2886 131.345 64.4254 131.273C65.7252 130.585 66.5724 130.137 67 128C66.9885 125.612 66.737 124.709 65.5 124.5ZM79.5 135C78.0507 134.148 77.1619 133.982 75.5 134C75.9218 136.04 75.9347 137.24 75.5 139.5C77.3878 138.012 78.3234 137.077 79.5 135Z"
        fill="#1AA1BF" />
    <path
        d="M139.373 131.285C139.464 132.652 139.282 134.703 138.826 137.438C138.462 140.172 137.824 142.906 136.912 145.641C136.001 148.375 134.816 150.79 133.357 152.887C131.99 154.892 130.395 155.895 128.572 155.895C127.661 155.895 126.886 155.348 126.248 154.254C125.61 153.16 125.063 151.747 124.607 150.016C124.152 148.284 123.787 146.37 123.514 144.273C123.24 142.086 122.967 139.99 122.693 137.984C122.511 135.979 122.329 134.156 122.146 132.516C122.055 130.784 121.964 129.508 121.873 128.688C121.508 128.141 120.825 127.594 119.822 127.047C118.911 126.409 118.09 126.09 117.361 126.09C116.541 126.09 115.538 126.865 114.354 128.414C113.26 129.964 112.212 131.786 111.209 133.883C110.206 135.979 109.386 138.076 108.748 140.172C108.11 142.177 107.837 143.727 107.928 144.82C107.928 145.549 108.611 146.826 109.979 148.648C111.437 150.471 113.214 152.613 115.311 155.074C117.407 157.535 119.686 160.224 122.146 163.141C124.607 165.966 126.886 168.792 128.982 171.617C131.079 174.443 132.856 177.132 134.314 179.684C135.773 182.236 136.548 184.423 136.639 186.246C136.821 188.434 136.32 191.259 135.135 194.723C134.041 198.095 132.628 201.376 130.896 204.566C129.165 207.757 127.296 210.536 125.291 212.906C123.377 215.185 121.645 216.37 120.096 216.461C119.093 216.552 117.771 216.096 116.131 215.094C114.49 214.182 112.713 212.952 110.799 211.402C108.885 209.853 106.925 208.167 104.92 206.344C103.006 204.43 101.183 202.561 99.4512 200.738C97.8105 198.915 96.3978 197.275 95.2129 195.816C94.1191 194.267 93.4811 193.128 93.2988 192.398C92.9342 191.305 92.7064 189.846 92.6152 188.023C92.6152 186.109 92.7064 184.286 92.8887 182.555C93.1621 180.732 93.4811 179.182 93.8457 177.906C94.3014 176.539 94.8483 175.855 95.4863 175.855C95.9421 175.855 96.6712 176.448 97.6738 177.633C98.7676 178.818 99.998 180.322 101.365 182.145C102.732 183.967 104.191 185.973 105.74 188.16C107.381 190.257 108.93 192.216 110.389 194.039C111.847 195.862 113.169 197.411 114.354 198.688C115.538 199.872 116.495 200.419 117.225 200.328C117.771 200.328 118.364 199.918 119.002 199.098C119.64 198.186 120.232 197.138 120.779 195.953C121.326 194.677 121.782 193.401 122.146 192.125C122.511 190.849 122.693 189.846 122.693 189.117C122.602 188.023 121.691 186.474 119.959 184.469C118.318 182.372 116.222 180.048 113.67 177.496C111.209 174.853 108.52 172.118 105.604 169.293C102.778 166.467 100.089 163.779 97.5371 161.227C95.0762 158.583 92.9798 156.214 91.248 154.117C89.6074 152.021 88.7415 150.426 88.6504 149.332C88.5592 148.238 88.8783 146.552 89.6074 144.273C90.3366 141.904 91.2936 139.26 92.4785 136.344C93.7546 133.427 95.1673 130.465 96.7168 127.457C98.2663 124.449 99.8613 121.669 101.502 119.117C103.143 116.565 104.738 114.514 106.287 112.965C107.837 111.324 109.204 110.504 110.389 110.504C111.938 110.504 113.715 110.868 115.721 111.598C117.726 112.236 119.777 113.147 121.873 114.332C124.061 115.426 126.157 116.702 128.162 118.16C130.258 119.618 132.127 121.122 133.768 122.672C135.408 124.13 136.73 125.634 137.732 127.184C138.735 128.642 139.282 130.009 139.373 131.285ZM155.779 174.488C157.238 173.941 158.878 173.349 160.701 172.711C162.615 171.982 164.438 171.344 166.17 170.797C167.902 170.159 169.451 169.612 170.818 169.156C172.186 168.701 173.188 168.336 173.826 168.062C173.735 167.06 173.598 165.921 173.416 164.645C173.325 163.277 173.188 162.001 173.006 160.816C172.824 159.54 172.596 158.447 172.322 157.535C172.049 156.624 171.775 156.077 171.502 155.895C170.773 155.621 169.542 155.393 167.811 155.211C166.17 154.938 164.438 154.983 162.615 155.348C160.883 155.712 159.288 156.396 157.83 157.398C156.372 158.401 155.551 159.996 155.369 162.184C155.187 163.642 155.141 165.465 155.232 167.652C155.324 169.84 155.506 172.118 155.779 174.488ZM185.447 176.676C185.356 176.858 184.262 177.223 182.166 177.77C180.07 178.316 177.563 178.909 174.646 179.547C171.73 180.094 168.631 180.686 165.35 181.324C162.068 181.871 159.243 182.327 156.873 182.691C157.329 186.337 157.876 189.618 158.514 192.535C159.152 195.361 159.699 197.138 160.154 197.867C160.61 198.505 161.202 199.098 161.932 199.645C162.57 200.1 163.344 200.556 164.256 201.012C165.258 201.376 166.443 201.65 167.811 201.832C168.813 202.105 169.77 201.741 170.682 200.738C171.411 199.827 172.049 198.232 172.596 195.953C173.234 193.674 173.553 190.074 173.553 185.152C176.378 184.697 178.566 184.423 180.115 184.332C181.756 184.241 182.941 184.241 183.67 184.332C184.581 184.423 185.128 184.56 185.311 184.742C185.402 185.016 185.402 185.699 185.311 186.793C185.219 187.887 184.992 189.254 184.627 190.895C184.354 192.444 183.989 194.176 183.533 196.09C183.169 197.913 182.713 199.69 182.166 201.422C181.619 203.062 181.027 204.566 180.389 205.934C179.751 207.21 179.067 208.121 178.338 208.668C176.15 210.309 173.416 211.129 170.135 211.129C166.854 211.038 163.618 210.582 160.428 209.762C157.238 208.85 154.367 207.802 151.814 206.617C149.262 205.341 147.667 204.293 147.029 203.473C146.574 202.926 146.163 201.559 145.799 199.371C145.434 197.092 145.115 194.358 144.842 191.168C144.66 187.978 144.523 184.469 144.432 180.641C144.34 176.812 144.386 173.076 144.568 169.43C144.842 165.784 145.206 162.411 145.662 159.312C146.209 156.214 146.938 153.707 147.85 151.793C149.217 149.059 151.45 146.826 154.549 145.094C157.648 143.362 160.929 142.177 164.393 141.539C167.856 140.901 171.137 140.81 174.236 141.266C177.426 141.721 179.796 142.724 181.346 144.273C182.257 145.185 183.077 147.008 183.807 149.742C184.536 152.385 184.992 155.621 185.174 159.449C185.174 159.814 185.219 160.862 185.311 162.594C185.402 164.326 185.447 166.194 185.447 168.199C185.538 170.113 185.584 171.936 185.584 173.668C185.584 175.4 185.538 176.402 185.447 176.676ZM223.729 139.215C224.367 139.762 224.959 140.81 225.506 142.359C226.144 143.909 226.691 145.777 227.146 147.965C227.602 150.152 228.012 152.522 228.377 155.074C228.742 157.626 229.061 160.133 229.334 162.594C229.607 165.055 229.79 167.379 229.881 169.566C230.063 171.663 230.2 173.395 230.291 174.762C230.382 176.402 230.428 178.134 230.428 179.957C230.519 181.689 230.519 183.375 230.428 185.016C230.428 186.565 230.337 187.978 230.154 189.254C230.063 190.53 229.881 191.487 229.607 192.125C229.061 193.492 228.104 194.449 226.736 194.996C225.46 195.452 224.002 195.771 222.361 195.953C221.541 196.044 220.128 196.09 218.123 196.09C216.209 195.999 214.113 195.908 211.834 195.816C209.646 195.634 207.55 195.452 205.545 195.27C203.54 195.087 202.036 194.905 201.033 194.723C199.028 194.267 197.57 193.674 196.658 192.945C195.838 192.216 195.018 191.168 194.197 189.801C193.924 189.254 193.696 187.887 193.514 185.699C193.331 183.421 193.195 180.732 193.104 177.633C193.104 174.443 193.149 171.025 193.24 167.379C193.331 163.733 193.468 160.27 193.65 156.988C193.924 153.707 194.197 150.836 194.471 148.375C194.835 145.914 195.291 144.273 195.838 143.453C196.749 142.177 198.299 140.992 200.486 139.898C202.765 138.805 204.816 137.939 206.639 137.301C207.55 137.027 208.735 136.845 210.193 136.754C211.743 136.572 213.338 136.572 214.979 136.754C216.71 136.845 218.351 137.118 219.9 137.574C221.45 137.939 222.726 138.486 223.729 139.215ZM216.072 181.598C216.255 181.233 216.437 180.139 216.619 178.316C216.893 176.402 217.075 174.124 217.166 171.48C217.348 168.837 217.439 166.012 217.439 163.004C217.531 159.996 217.576 157.216 217.576 154.664C217.576 152.112 217.485 149.97 217.303 148.238C217.12 146.415 216.893 145.367 216.619 145.094C216.163 144.729 215.48 144.592 214.568 144.684C213.748 144.684 212.882 144.82 211.971 145.094C211.059 145.276 210.239 145.549 209.51 145.914C208.781 146.188 208.279 146.461 208.006 146.734C206.821 147.737 206.183 149.378 206.092 151.656C206.092 152.294 206.001 154.117 205.818 157.125C205.727 160.042 205.682 163.232 205.682 166.695C205.682 170.068 205.727 173.212 205.818 176.129C206.001 179.046 206.32 180.823 206.775 181.461C207.231 182.099 207.869 182.6 208.689 182.965C209.601 183.238 210.512 183.375 211.424 183.375C212.426 183.375 213.338 183.238 214.158 182.965C215.07 182.6 215.708 182.145 216.072 181.598ZM270.76 141.676C271.671 142.223 272.583 143.225 273.494 144.684C274.497 146.051 275.363 147.691 276.092 149.605C276.912 151.52 277.55 153.57 278.006 155.758C278.462 157.854 278.689 159.859 278.689 161.773C278.689 163.141 278.507 165.055 278.143 167.516C277.869 169.885 277.459 172.529 276.912 175.445C276.365 178.271 275.773 181.233 275.135 184.332C274.497 187.34 273.859 190.12 273.221 192.672C272.674 195.224 272.173 197.411 271.717 199.234C271.261 200.966 270.942 202.014 270.76 202.379C270.304 203.473 269.894 204.43 269.529 205.25C269.256 205.979 268.891 206.526 268.436 206.891C267.433 207.62 266.157 208.167 264.607 208.531C263.058 208.805 261.463 208.987 259.822 209.078C258.182 209.169 256.587 209.169 255.037 209.078C253.579 208.896 252.439 208.668 251.619 208.395C251.255 208.303 250.844 208.212 250.389 208.121C250.024 207.939 249.614 207.757 249.158 207.574C248.247 209.124 247.199 210.536 246.014 211.812C244.829 212.997 243.735 213.499 242.732 213.316C242.368 213.225 241.958 211.721 241.502 208.805C241.137 205.888 240.727 202.06 240.271 197.32C239.816 192.49 239.36 187.021 238.904 180.914C238.449 174.807 238.038 168.564 237.674 162.184C237.309 155.712 236.99 149.378 236.717 143.18C236.443 136.982 236.215 131.467 236.033 126.637C235.942 121.715 235.942 117.704 236.033 114.605C236.124 111.415 236.352 109.684 236.717 109.41C237.081 109.137 237.902 109.365 239.178 110.094C240.545 110.732 242.003 111.734 243.553 113.102C245.102 114.378 246.515 115.927 247.791 117.75C249.158 119.573 250.07 121.441 250.525 123.355C250.799 124.814 250.981 127.32 251.072 130.875C251.255 134.43 251.346 138.622 251.346 143.453C255.356 141.904 259.048 140.901 262.42 140.445C265.883 139.99 268.663 140.4 270.76 141.676ZM264.881 161.773C264.881 160.315 264.653 158.902 264.197 157.535C263.742 156.077 263.195 154.846 262.557 153.844C261.919 152.75 261.235 151.93 260.506 151.383C259.777 150.836 259.139 150.654 258.592 150.836C257.589 151.018 256.632 151.292 255.721 151.656C254.809 151.93 254.035 152.203 253.396 152.477C252.576 152.841 251.893 153.16 251.346 153.434C251.255 158.811 251.118 164.28 250.936 169.84C250.844 175.4 250.799 180.595 250.799 185.426C250.799 187.796 250.844 189.892 250.936 191.715C251.027 193.447 251.072 194.54 251.072 194.996C251.346 197.184 251.938 198.733 252.85 199.645C253.123 199.827 253.533 200.1 254.08 200.465C254.718 200.738 255.356 201.012 255.994 201.285C256.723 201.467 257.407 201.604 258.045 201.695C258.683 201.695 259.23 201.513 259.686 201.148C259.777 201.057 259.959 200.055 260.232 198.141C260.597 196.135 260.962 193.72 261.326 190.895C261.691 188.069 262.055 185.016 262.42 181.734C262.876 178.362 263.286 175.263 263.65 172.438C264.015 169.521 264.288 167.06 264.471 165.055C264.744 163.049 264.881 161.956 264.881 161.773ZM315.057 139.488C315.786 139.944 316.469 140.855 317.107 142.223C317.837 143.499 318.475 145.003 319.021 146.734C319.66 148.375 320.161 150.152 320.525 152.066C320.981 153.98 321.346 155.758 321.619 157.398C321.984 159.039 322.212 160.452 322.303 161.637C322.394 162.73 322.394 163.414 322.303 163.688C322.12 164.052 321.574 164.417 320.662 164.781C319.842 165.146 318.611 165.556 316.971 166.012C315.33 166.467 313.051 166.969 310.135 167.516C309.952 162.503 309.588 158.72 309.041 156.168C308.494 153.525 307.902 151.656 307.264 150.562C306.535 149.286 305.76 148.648 304.939 148.648C304.119 149.013 303.39 149.469 302.752 150.016C302.114 150.471 301.567 150.973 301.111 151.52C300.564 152.158 300.063 152.841 299.607 153.57C299.425 153.844 299.243 154.482 299.061 155.484C298.878 156.487 298.696 157.991 298.514 159.996C298.514 160.634 298.468 161.956 298.377 163.961C298.377 165.966 298.331 168.29 298.24 170.934C298.24 173.577 298.195 176.357 298.104 179.273C298.104 182.19 298.058 184.924 297.967 187.477C297.967 189.938 297.921 192.034 297.83 193.766C297.83 195.497 297.785 196.5 297.693 196.773C297.511 197.229 297.055 197.867 296.326 198.688C295.597 199.508 294.777 200.283 293.865 201.012C292.954 201.65 292.088 202.197 291.268 202.652C290.447 203.017 289.9 202.971 289.627 202.516C289.354 202.242 289.08 201.057 288.807 198.961C288.533 196.865 288.214 194.312 287.85 191.305C287.576 188.206 287.257 184.833 286.893 181.188C286.528 177.542 286.209 174.033 285.936 170.66C285.662 167.288 285.434 164.28 285.252 161.637C285.07 158.902 284.933 156.943 284.842 155.758C284.751 154.026 284.66 152.112 284.568 150.016C284.477 147.919 284.386 145.96 284.295 144.137C284.295 142.223 284.295 140.582 284.295 139.215C284.386 137.757 284.568 136.891 284.842 136.617C285.024 136.344 285.617 136.298 286.619 136.48C287.713 136.572 288.852 136.845 290.037 137.301C291.313 137.665 292.498 138.167 293.592 138.805C294.686 139.443 295.415 140.035 295.779 140.582C296.053 141.038 296.326 141.721 296.6 142.633C298.331 141.721 299.972 140.901 301.521 140.172C303.162 139.352 304.712 138.759 306.17 138.395C307.719 138.03 309.223 137.939 310.682 138.121C312.14 138.212 313.598 138.668 315.057 139.488ZM358.396 137.438C358.67 137.62 358.898 138.805 359.08 140.992C359.262 143.18 359.399 146.051 359.49 149.605C359.673 153.069 359.764 157.034 359.764 161.5C359.764 165.966 359.764 170.569 359.764 175.309C359.764 180.048 359.718 184.742 359.627 189.391C359.627 193.948 359.536 198.141 359.354 201.969C359.262 205.706 359.126 208.896 358.943 211.539C358.852 214.182 358.715 215.868 358.533 216.598C358.351 217.145 357.804 217.965 356.893 219.059C356.072 220.243 355.07 221.428 353.885 222.613C352.7 223.798 351.469 224.846 350.193 225.758C349.008 226.76 348.006 227.398 347.186 227.672C345.545 228.219 343.722 228.128 341.717 227.398C339.712 226.669 337.798 225.712 335.975 224.527C334.243 223.342 332.693 222.066 331.326 220.699C330.05 219.423 329.275 218.512 329.002 217.965C328.729 217.418 328.455 216.598 328.182 215.504C327.999 214.501 327.863 213.499 327.771 212.496C327.68 211.402 327.68 210.491 327.771 209.762C327.954 208.941 328.273 208.531 328.729 208.531C329.093 208.531 330.05 208.941 331.6 209.762C333.24 210.582 334.972 211.448 336.795 212.359C338.618 213.18 340.304 213.863 341.854 214.41C343.403 214.957 344.36 214.911 344.725 214.273C345.089 213.544 345.454 211.585 345.818 208.395C346.183 205.113 346.548 201.148 346.912 196.5C343.722 197.594 340.805 198.323 338.162 198.688C335.61 198.961 333.468 198.505 331.736 197.32C330.916 196.773 330.05 195.816 329.139 194.449C328.318 193.082 327.544 191.533 326.814 189.801C326.176 187.978 325.63 186.064 325.174 184.059C324.718 181.962 324.49 180.003 324.49 178.18C324.49 176.904 324.627 175.081 324.9 172.711C325.265 170.341 325.721 167.743 326.268 164.918C326.814 162.092 327.361 159.176 327.908 156.168C328.546 153.16 329.139 150.426 329.686 147.965C330.324 145.504 330.825 143.453 331.189 141.812C331.645 140.081 331.919 139.124 332.01 138.941C332.192 138.668 332.648 138.531 333.377 138.531C334.106 138.44 334.881 138.486 335.701 138.668C336.521 138.759 337.296 138.987 338.025 139.352C338.755 139.716 339.21 140.126 339.393 140.582C339.484 140.947 339.484 142.086 339.393 144C339.393 145.914 339.256 148.193 338.982 150.836C338.8 153.479 338.572 156.35 338.299 159.449C338.117 162.457 337.889 165.328 337.615 168.062C337.433 170.706 337.251 172.984 337.068 174.898C336.886 176.812 336.795 177.952 336.795 178.316C336.795 179.775 336.932 181.188 337.205 182.555C337.57 183.831 337.98 184.97 338.436 185.973C338.982 186.884 339.529 187.613 340.076 188.16C340.623 188.707 341.124 188.889 341.58 188.707C343.13 188.434 344.542 188.069 345.818 187.613C346.456 187.34 347.049 187.066 347.596 186.793C347.869 182.327 348.143 177.77 348.416 173.121C348.689 168.382 348.917 164.052 349.1 160.133C349.282 156.214 349.419 152.887 349.51 150.152C349.692 147.418 349.783 145.686 349.783 144.957C349.783 144.137 350.148 143.225 350.877 142.223C351.606 141.129 352.426 140.172 353.338 139.352C354.249 138.531 355.161 137.939 356.072 137.574C357.075 137.118 357.85 137.073 358.396 137.438ZM408.162 156.715C408.162 158.173 407.98 160.27 407.615 163.004C407.342 165.738 406.932 168.746 406.385 172.027C405.838 175.217 405.245 178.544 404.607 182.008C404.061 185.38 403.468 188.479 402.83 191.305C402.283 194.13 401.782 196.5 401.326 198.414C400.962 200.328 400.734 201.376 400.643 201.559C400.46 201.832 399.959 202.014 399.139 202.105C398.41 202.105 397.544 202.014 396.541 201.832C395.63 201.65 394.764 201.376 393.943 201.012C393.214 200.647 392.758 200.191 392.576 199.645C392.485 199.28 392.439 198.004 392.439 195.816C392.531 193.629 392.622 191.031 392.713 188.023C392.895 184.924 393.077 181.643 393.26 178.18C393.442 174.625 393.624 171.344 393.807 168.336C394.08 165.237 394.262 162.594 394.354 160.406C394.536 158.219 394.627 156.897 394.627 156.441C394.627 154.801 394.445 153.251 394.08 151.793C393.807 150.243 393.442 148.922 392.986 147.828C392.531 146.734 391.984 145.914 391.346 145.367C390.799 144.729 390.298 144.501 389.842 144.684C388.657 144.866 387.654 145.185 386.834 145.641C386.014 146.005 385.33 146.415 384.783 146.871C384.145 147.418 383.644 148.056 383.279 148.785C383.188 148.967 383.006 149.514 382.732 150.426C382.55 151.337 382.459 152.385 382.459 153.57C382.459 153.935 382.459 155.257 382.459 157.535C382.459 159.723 382.413 162.366 382.322 165.465C382.322 168.564 382.277 171.936 382.186 175.582C382.186 179.137 382.14 182.464 382.049 185.562C382.049 188.57 382.003 191.168 381.912 193.355C381.821 195.543 381.73 196.773 381.639 197.047C381.456 197.594 381.001 198.368 380.271 199.371C379.542 200.283 378.722 201.148 377.811 201.969C376.899 202.789 376.033 203.427 375.213 203.883C374.393 204.247 373.846 204.156 373.572 203.609C373.299 203.336 373.025 202.014 372.752 199.645C372.479 197.184 372.16 194.221 371.795 190.758C371.521 187.203 371.202 183.375 370.838 179.273C370.473 175.081 370.154 171.07 369.881 167.242C369.607 163.414 369.38 159.951 369.197 156.852C369.015 153.753 368.878 151.52 368.787 150.152C368.696 148.238 368.605 146.096 368.514 143.727C368.423 141.266 368.331 138.987 368.24 136.891C368.24 134.703 368.24 132.835 368.24 131.285C368.331 129.645 368.514 128.642 368.787 128.277C368.969 127.913 369.562 127.822 370.564 128.004C371.658 128.186 372.798 128.551 373.982 129.098C375.258 129.553 376.443 130.146 377.537 130.875C378.631 131.513 379.36 132.151 379.725 132.789C379.907 133.336 380.135 133.974 380.408 134.703C380.682 135.341 380.91 136.435 381.092 137.984C382.641 137.073 384.327 136.253 386.15 135.523C387.973 134.703 389.751 134.111 391.482 133.746C393.305 133.29 395.037 133.154 396.678 133.336C398.318 133.427 399.777 133.883 401.053 134.703C401.873 135.341 402.693 136.435 403.514 137.984C404.425 139.534 405.2 141.357 405.838 143.453C406.567 145.549 407.114 147.783 407.479 150.152C407.934 152.431 408.162 154.618 408.162 156.715ZM162.82 388.238C162.638 387.783 162.547 386.142 162.547 383.316C162.547 380.491 162.547 376.936 162.547 372.652C162.638 368.368 162.729 363.583 162.82 358.297C163.003 352.919 163.139 347.496 163.23 342.027C163.413 336.467 163.595 331.09 163.777 325.895C163.96 320.608 164.096 315.914 164.188 311.812C164.37 307.711 164.507 304.384 164.598 301.832C164.689 299.189 164.78 297.776 164.871 297.594C164.962 297.229 165.372 296.318 166.102 294.859C166.831 293.401 167.651 291.897 168.562 290.348C169.565 288.707 170.568 287.294 171.57 286.109C172.573 284.833 173.439 284.241 174.168 284.332C174.441 284.423 174.669 286.246 174.852 289.801C175.125 293.264 175.353 297.73 175.535 303.199C175.809 308.668 175.991 314.729 176.082 321.383C176.264 327.945 176.401 334.371 176.492 340.66C176.674 346.858 176.811 352.509 176.902 357.613C176.993 362.626 177.085 366.318 177.176 368.688C180.092 368.961 183.009 369.189 185.926 369.371C188.934 369.553 191.622 369.781 193.992 370.055C196.362 370.237 198.276 370.419 199.734 370.602C201.284 370.784 202.104 370.921 202.195 371.012C202.469 371.376 202.833 372.242 203.289 373.609C203.836 374.885 204.337 376.298 204.793 377.848C205.249 379.306 205.568 380.673 205.75 381.949C206.023 383.225 205.978 384 205.613 384.273C195.132 386.188 187.02 387.464 181.277 388.102C175.535 388.74 171.297 389.059 168.562 389.059C165.372 389.059 163.458 388.785 162.82 388.238ZM241.434 312.086C241.98 312.724 242.482 313.408 242.938 314.137C243.393 314.775 243.803 315.686 244.168 316.871C244.533 317.965 244.806 319.423 244.988 321.246C245.262 323.069 245.398 325.439 245.398 328.355C245.398 333.004 245.262 337.698 244.988 342.438C244.806 347.086 244.624 351.188 244.441 354.742C244.35 357.932 244.259 360.895 244.168 363.629C244.077 366.363 243.986 368.779 243.895 370.875C243.803 372.88 243.667 374.475 243.484 375.66C243.393 376.845 243.302 377.483 243.211 377.574C242.846 377.848 242.254 377.757 241.434 377.301C240.704 376.754 239.884 376.07 238.973 375.25C238.152 374.43 237.378 373.564 236.648 372.652C235.919 371.741 235.464 371.012 235.281 370.465C235.281 370.009 235.145 368.688 234.871 366.5C232.684 367.776 230.268 368.688 227.625 369.234C224.982 369.69 222.339 369.872 219.695 369.781C217.143 369.599 214.773 369.098 212.586 368.277C210.398 367.457 208.758 366.363 207.664 364.996C207.208 364.449 206.798 363.629 206.434 362.535C206.16 361.441 205.887 360.211 205.613 358.844C205.431 357.385 205.249 355.882 205.066 354.332C204.884 352.691 204.747 351.188 204.656 349.82C204.474 346.266 204.93 343.212 206.023 340.66C207.117 338.017 209.122 336.057 212.039 334.781C213.315 334.234 215.001 333.961 217.098 333.961C219.285 333.87 221.427 333.961 223.523 334.234C225.711 334.417 227.671 334.69 229.402 335.055C231.134 335.328 232.228 335.556 232.684 335.738C232.319 331.09 232.046 327.079 231.863 323.707C231.681 320.243 231.316 318.01 230.77 317.008C230.314 316.37 229.767 315.732 229.129 315.094C228.582 314.638 227.853 314.137 226.941 313.59C226.03 313.043 224.936 312.633 223.66 312.359C222.658 312.177 221.746 312.587 220.926 313.59C220.197 314.501 219.513 316.142 218.875 318.512C218.328 320.79 218.009 324.299 217.918 329.039C214.728 329.13 212.267 329.13 210.535 329.039C208.895 328.857 207.664 328.674 206.844 328.492C205.841 328.31 205.249 328.082 205.066 327.809C204.884 327.444 204.975 326.122 205.34 323.844C205.704 321.474 206.206 318.922 206.844 316.188C207.573 313.453 208.393 310.855 209.305 308.395C210.307 305.934 211.355 304.384 212.449 303.746C214.637 302.47 217.234 302.014 220.242 302.379C223.341 302.743 226.349 303.518 229.266 304.703C232.182 305.888 234.78 307.21 237.059 308.668C239.337 310.126 240.796 311.266 241.434 312.086ZM232.957 352.008C232.957 351.552 233.003 350.96 233.094 350.23C233.185 349.41 233.23 348.59 233.23 347.77C233.23 346.949 233.185 346.174 233.094 345.445C233.094 344.716 233.003 344.169 232.82 343.805C232.547 343.258 231.727 342.802 230.359 342.438C229.083 342.073 227.625 341.845 225.984 341.754C224.344 341.572 222.794 341.526 221.336 341.617C219.878 341.617 218.875 341.799 218.328 342.164C217.599 342.62 217.052 343.258 216.688 344.078C216.414 344.898 216.232 346.174 216.141 347.906C216.141 348.727 216.186 349.592 216.277 350.504C216.368 351.415 216.46 352.327 216.551 353.238C216.733 354.059 216.915 354.788 217.098 355.426C217.371 356.064 217.645 356.474 217.918 356.656C218.556 357.112 219.65 357.522 221.199 357.887C222.84 358.16 224.48 358.251 226.121 358.16C227.762 357.978 229.266 357.431 230.633 356.52C232 355.608 232.775 354.104 232.957 352.008ZM287.098 311.676C288.009 312.223 288.921 313.225 289.832 314.684C290.835 316.051 291.701 317.691 292.43 319.605C293.25 321.52 293.888 323.57 294.344 325.758C294.799 327.854 295.027 329.859 295.027 331.773C295.027 333.141 294.845 335.055 294.48 337.516C294.207 339.885 293.797 342.529 293.25 345.445C292.703 348.271 292.111 351.233 291.473 354.332C290.835 357.34 290.197 360.12 289.559 362.672C289.012 365.224 288.51 367.411 288.055 369.234C287.599 370.966 287.28 372.014 287.098 372.379C286.642 373.473 286.232 374.43 285.867 375.25C285.594 375.979 285.229 376.526 284.773 376.891C283.771 377.62 282.495 378.167 280.945 378.531C279.396 378.805 277.801 378.987 276.16 379.078C274.52 379.169 272.924 379.169 271.375 379.078C269.917 378.896 268.777 378.668 267.957 378.395C267.592 378.303 267.182 378.212 266.727 378.121C266.362 377.939 265.952 377.757 265.496 377.574C264.585 379.124 263.536 380.536 262.352 381.812C261.167 382.997 260.073 383.499 259.07 383.316C258.706 383.225 258.296 381.721 257.84 378.805C257.475 375.888 257.065 372.06 256.609 367.32C256.154 362.49 255.698 357.021 255.242 350.914C254.786 344.807 254.376 338.564 254.012 332.184C253.647 325.712 253.328 319.378 253.055 313.18C252.781 306.982 252.553 301.467 252.371 296.637C252.28 291.715 252.28 287.704 252.371 284.605C252.462 281.415 252.69 279.684 253.055 279.41C253.419 279.137 254.24 279.365 255.516 280.094C256.883 280.732 258.341 281.734 259.891 283.102C261.44 284.378 262.853 285.927 264.129 287.75C265.496 289.573 266.408 291.441 266.863 293.355C267.137 294.814 267.319 297.32 267.41 300.875C267.592 304.43 267.684 308.622 267.684 313.453C271.694 311.904 275.385 310.901 278.758 310.445C282.221 309.99 285.001 310.4 287.098 311.676ZM281.219 331.773C281.219 330.315 280.991 328.902 280.535 327.535C280.079 326.077 279.533 324.846 278.895 323.844C278.257 322.75 277.573 321.93 276.844 321.383C276.115 320.836 275.477 320.654 274.93 320.836C273.927 321.018 272.97 321.292 272.059 321.656C271.147 321.93 270.372 322.203 269.734 322.477C268.914 322.841 268.23 323.16 267.684 323.434C267.592 328.811 267.456 334.28 267.273 339.84C267.182 345.4 267.137 350.595 267.137 355.426C267.137 357.796 267.182 359.892 267.273 361.715C267.365 363.447 267.41 364.54 267.41 364.996C267.684 367.184 268.276 368.733 269.188 369.645C269.461 369.827 269.871 370.1 270.418 370.465C271.056 370.738 271.694 371.012 272.332 371.285C273.061 371.467 273.745 371.604 274.383 371.695C275.021 371.695 275.568 371.513 276.023 371.148C276.115 371.057 276.297 370.055 276.57 368.141C276.935 366.135 277.299 363.72 277.664 360.895C278.029 358.069 278.393 355.016 278.758 351.734C279.214 348.362 279.624 345.263 279.988 342.438C280.353 339.521 280.626 337.06 280.809 335.055C281.082 333.049 281.219 331.956 281.219 331.773ZM341.375 316.734C341.466 317.737 341.284 319.286 340.828 321.383C340.464 323.479 339.871 325.576 339.051 327.672C338.322 329.768 337.319 331.591 336.043 333.141C334.858 334.69 333.491 335.465 331.941 335.465C330.848 335.465 329.936 334.599 329.207 332.867C328.569 331.135 328.068 329.13 327.703 326.852C327.43 324.482 327.202 322.158 327.02 319.879C326.837 317.6 326.655 316.005 326.473 315.094C326.199 314.638 325.652 314.228 324.832 313.863C324.103 313.408 323.374 313.18 322.645 313.18C321.915 313.18 321.095 313.772 320.184 314.957C319.272 316.142 318.361 317.509 317.449 319.059C316.629 320.608 315.9 322.158 315.262 323.707C314.715 325.257 314.487 326.396 314.578 327.125C314.578 327.672 315.171 328.629 316.355 329.996C317.54 331.363 318.999 333.004 320.73 334.918C322.553 336.741 324.467 338.746 326.473 340.934C328.569 343.03 330.483 345.172 332.215 347.359C333.947 349.456 335.405 351.461 336.59 353.375C337.866 355.289 338.549 356.93 338.641 358.297C338.732 359.938 338.276 362.034 337.273 364.586C336.362 367.138 335.177 369.599 333.719 371.969C332.26 374.339 330.711 376.389 329.07 378.121C327.43 379.853 325.971 380.764 324.695 380.855C323.419 380.947 321.551 380.263 319.09 378.805C316.72 377.255 314.305 375.478 311.844 373.473C309.474 371.376 307.332 369.326 305.418 367.32C303.595 365.315 302.547 363.857 302.273 362.945C302 362.125 301.818 361.031 301.727 359.664C301.727 358.297 301.772 356.93 301.863 355.562C302.046 354.195 302.319 353.056 302.684 352.145C303.048 351.142 303.504 350.641 304.051 350.641C304.598 350.641 305.691 351.598 307.332 353.512C308.973 355.335 310.75 357.431 312.664 359.801C314.578 362.079 316.447 364.176 318.27 366.09C320.092 367.913 321.414 368.824 322.234 368.824C322.69 368.824 323.191 368.505 323.738 367.867C324.285 367.138 324.786 366.318 325.242 365.406C325.698 364.495 326.062 363.583 326.336 362.672C326.701 361.669 326.883 360.895 326.883 360.348C326.792 359.527 326.062 358.342 324.695 356.793C323.328 355.243 321.596 353.512 319.5 351.598C317.404 349.684 315.125 347.678 312.664 345.582C310.203 343.395 307.924 341.344 305.828 339.43C303.732 337.516 302 335.784 300.633 334.234C299.266 332.685 298.536 331.5 298.445 330.68C298.354 329.859 298.628 328.583 299.266 326.852C299.904 325.029 300.724 323.069 301.727 320.973C302.729 318.785 303.868 316.552 305.145 314.273C306.512 311.995 307.879 309.898 309.246 307.984C310.613 306.07 311.935 304.521 313.211 303.336C314.578 302.06 315.763 301.422 316.766 301.422C318.771 301.422 321.141 301.969 323.875 303.062C326.701 304.156 329.389 305.523 331.941 307.164C334.493 308.714 336.681 310.354 338.504 312.086C340.327 313.818 341.284 315.367 341.375 316.734Z"
        fill="#333333" fill-opacity="0.8" />
</svg>